<svg xmlns="http://www.w3.org/2000/svg" viewBox="0 0 64 64" width="64" height="64">
  <rect width="64" height="64" rx="12" fill="#0d1117"/>
  <!-- Row 1: 1 0 1 1 0 -->
  <circle cx="12" cy="10" r="3.2" fill="#39d353"/>
  <circle cx="22" cy="10" r="3.2" fill="#39d353" opacity="0.18"/>
  <circle cx="32" cy="10" r="3.2" fill="#39d353"/>
  <circle cx="42" cy="10" r="3.2" fill="#39d353"/>
  <circle cx="52" cy="10" r="3.2" fill="#39d353" opacity="0.18"/>
  <!-- Row 2: 0 1 0 1 1 -->
  <circle cx="12" cy="20" r="3.2" fill="#39d353" opacity="0.18"/>
  <circle cx="22" cy="20" r="3.2" fill="#39d353"/>
  <circle cx="32" cy="20" r="3.2" fill="#39d353" opacity="0.18"/>
  <circle cx="42" cy="20" r="3.2" fill="#39d353"/>
  <circle cx="52" cy="20" r="3.2" fill="#39d353"/>
  <!-- Row 3: 1 1 0 0 1 -->
  <circle cx="12" cy="30" r="3.2" fill="#39d353"/>
  <circle cx="22" cy="30" r="3.2" fill="#39d353"/>
  <circle cx="32" cy="30" r="3.2" fill="#39d353" opacity="0.18"/>
  <circle cx="42" cy="30" r="3.2" fill="#39d353" opacity="0.18"/>
  <circle cx="52" cy="30" r="3.2" fill="#39d353"/>
  <!-- Row 4: highlighted -->
  <circle cx="12" cy="40" r="3.2" fill="#39d353" opacity="0.18"/>
  <circle cx="22" cy="40" r="3.8" fill="#7ee787"/>
  <circle cx="32" cy="40" r="3.8" fill="#7ee787"/>
  <circle cx="42" cy="40" r="3.2" fill="#39d353" opacity="0.18"/>
  <circle cx="52" cy="40" r="3.8" fill="#7ee787"/>
  <!-- Row 5: 1 0 1 1 0 -->
  <circle cx="12" cy="50" r="3.2" fill="#39d353"/>
  <circle cx="22" cy="50" r="3.2" fill="#39d353" opacity="0.18"/>
  <circle cx="32" cy="50" r="3.2" fill="#39d353"/>
  <circle cx="42" cy="50" r="3.2" fill="#39d353"/>
  <circle cx="52" cy="50" r="3.2" fill="#39d353" opacity="0.18"/>
  <!-- Row 6: 0 0 1 0 1 -->
  <circle cx="12" cy="60" r="3.2" fill="#39d353" opacity="0.18"/>
  <circle cx="22" cy="60" r="3.2" fill="#39d353" opacity="0.18"/>
  <circle cx="32" cy="60" r="3.2" fill="#39d353"/>
  <circle cx="42" cy="60" r="3.2" fill="#39d353" opacity="0.18"/>
  <circle cx="52" cy="60" r="3.2" fill="#39d353"/>
</svg>
